<?xml version="1.0" encoding="UTF-8"?>
<svg xmlns="http://www.w3.org/2000/svg" xmlns:xlink="http://www.w3.org/1999/xlink" width="22px" height="px" viewBox="0 0 22 22" version="1.1">
<g id="surface1">
<path style=" stroke:none;fill-rule:nonzero;fill:rgb(100%,100%,100%);fill-opacity:1;" d="M 9.679688 12.609375 L 9.679688 7.496094 C 9.679688 7.332031 9.8125 7.195312 9.980469 7.191406 L 10.910156 7.191406 C 11.078125 7.191406 11.214844 7.320312 11.21875 7.488281 L 11.21875 11.0625 L 14.433594 11.0625 C 14.605469 11.0625 14.742188 11.199219 14.75 11.371094 L 14.75 12.320312 C 14.742188 12.492188 14.605469 12.628906 14.433594 12.628906 Z M 9.679688 12.609375 "/>
<path style=" stroke:none;fill-rule:nonzero;fill:rgb(0%,0%,0%);fill-opacity:1;" d="M 9.304688 6.640625 L 9.304688 12.886719 L 15.113281 12.886719 C 15.324219 12.886719 15.496094 12.722656 15.5 12.511719 L 15.5 11.382812 C 15.496094 11.171875 15.324219 11.007812 15.113281 11.007812 L 11.144531 11.007812 L 11.144531 6.640625 C 11.140625 6.4375 10.972656 6.273438 10.769531 6.273438 L 9.628906 6.273438 C 9.445312 6.300781 9.308594 6.457031 9.304688 6.640625 Z M 10.917969 1.671875 C 15.332031 1.671875 19.128906 4.785156 19.992188 9.113281 C 20.855469 13.441406 18.539062 17.773438 14.464844 19.464844 C 10.386719 21.152344 5.6875 19.726562 3.234375 16.058594 C 0.78125 12.390625 1.261719 7.503906 4.382812 4.382812 C 6.117188 2.648438 8.46875 1.671875 10.917969 1.671875 Z M 10.917969 1.671875 "/>
</g>
</svg>
