<?xml version="1.0" encoding="UTF-8"?>
<svg xmlns="http://www.w3.org/2000/svg" xmlns:xlink="http://www.w3.org/1999/xlink" width="22px" height="px" viewBox="0 0 21 16" version="1.1">
<g id="surface1">
<path style=" stroke:none;fill-rule:evenodd;fill:rgb(0%,0%,0%);fill-opacity:1;" d="M 16.316406 6.984375 C 18.480469 6.992188 20.308594 8.644531 20.605469 10.851562 C 20.898438 13.0625 19.574219 15.160156 17.492188 15.773438 C 15.410156 16.382812 13.210938 15.328125 12.328125 13.289062 C 11.449219 11.253906 12.15625 8.855469 13.988281 7.671875 L 12.636719 5.519531 L 7.320312 5.519531 L 6.507812 7.375 C 8.542969 8.308594 9.570312 10.671875 8.894531 12.859375 C 8.21875 15.046875 6.054688 16.363281 3.871094 15.910156 C 1.6875 15.460938 0.179688 13.390625 0.371094 11.101562 C 0.5625 8.816406 2.394531 7.042969 4.621094 6.984375 C 4.820312 6.96875 5.023438 6.96875 5.222656 6.984375 L 6.257812 4.574219 C 6.363281 4.324219 6.597656 4.164062 6.859375 4.164062 L 13.007812 4.164062 C 13.125 4.164062 13.238281 4.195312 13.339844 4.257812 L 14.652344 1.363281 L 12.402344 1.363281 C 12.148438 1.394531 11.898438 1.269531 11.761719 1.046875 C 11.625 0.824219 11.625 0.539062 11.761719 0.316406 C 11.898438 0.09375 12.148438 -0.03125 12.402344 0 L 15.6875 0 C 15.785156 0.00390625 15.878906 0.0273438 15.964844 0.0664062 C 16.128906 0.144531 16.253906 0.285156 16.3125 0.460938 C 16.371094 0.636719 16.359375 0.828125 16.28125 0.992188 L 14.210938 5.546875 L 15.226562 7.152344 C 15.582031 7.050781 15.949219 6.992188 16.316406 6.984375 Z M 4.710938 1.105469 L 8.164062 1.105469 C 8.375 1.101562 8.574219 1.183594 8.722656 1.335938 C 8.875 1.488281 8.957031 1.699219 8.957031 1.921875 L 8.957031 2.300781 C 8.957031 2.519531 8.875 2.730469 8.722656 2.882812 C 8.570312 3.03125 8.371094 3.113281 8.164062 3.117188 L 4.710938 3.117188 C 4.5 3.117188 4.300781 3.035156 4.152344 2.882812 C 4.003906 2.730469 3.917969 2.519531 3.917969 2.300781 L 3.917969 1.957031 C 3.917969 1.738281 4 1.527344 4.152344 1.371094 C 4.300781 1.222656 4.5 1.136719 4.710938 1.140625 Z M 5.941406 8.652344 L 4.855469 11.234375 C 4.78125 11.40625 4.648438 11.539062 4.476562 11.605469 C 4.308594 11.671875 4.117188 11.664062 3.953125 11.585938 C 3.785156 11.511719 3.65625 11.371094 3.59375 11.195312 C 3.527344 11.019531 3.539062 10.824219 3.621094 10.65625 L 4.621094 8.339844 C 3.074219 8.34375 1.777344 9.542969 1.609375 11.128906 C 1.4375 12.710938 2.449219 14.175781 3.953125 14.53125 C 5.460938 14.882812 6.988281 14.015625 7.5 12.515625 C 8.011719 11.011719 7.351562 9.351562 5.960938 8.652344 Z M 16.003906 8.355469 L 17.0625 10.035156 C 17.261719 10.351562 17.175781 10.773438 16.871094 10.976562 C 16.566406 11.183594 16.15625 11.09375 15.957031 10.777344 L 14.726562 8.8125 C 13.4375 9.636719 12.933594 11.316406 13.550781 12.746094 C 14.167969 14.175781 15.714844 14.917969 17.171875 14.484375 C 18.632812 14.054688 19.558594 12.578125 19.339844 11.027344 C 19.125 9.480469 17.835938 8.332031 16.316406 8.339844 L 15.992188 8.339844 Z M 16.003906 8.355469 "/>
</g>
</svg>
