<?xml version="1.0" encoding="UTF-8"?>
<svg xmlns="http://www.w3.org/2000/svg" xmlns:xlink="http://www.w3.org/1999/xlink" width="19px" height="25px" viewBox="0 0 19 25" version="1.1">
<g id="surface1">
<path style=" stroke:none;fill-rule:evenodd;fill:rgb(0%,0%,0%);fill-opacity:1;" d="M 14.109375 21.617188 C 12.941406 22.886719 11.597656 23.984375 10.113281 24.882812 C 9.921875 25.015625 9.664062 25.015625 9.472656 24.882812 C 7.359375 23.5625 5.476562 21.90625 3.90625 19.984375 C 1.996094 17.691406 0.710938 14.957031 0.171875 12.035156 C -0.328125 9.472656 0.148438 6.816406 1.507812 4.578125 C 2.078125 3.710938 2.789062 2.945312 3.617188 2.3125 C 5.394531 0.851562 7.628906 0.0390625 9.941406 0.0117188 C 12.1875 0.0429688 14.335938 0.910156 15.964844 2.4375 C 16.578125 3.003906 17.109375 3.652344 17.535156 4.363281 C 18.992188 6.96875 19.402344 10.015625 18.683594 12.902344 C 17.964844 16.152344 16.386719 19.15625 14.109375 21.605469 Z M 9.5 4.835938 C 12.109375 4.835938 14.226562 6.925781 14.226562 9.503906 C 14.226562 12.078125 12.109375 14.167969 9.5 14.167969 C 6.890625 14.167969 4.773438 12.078125 4.773438 9.503906 C 4.773438 6.925781 6.890625 4.835938 9.5 4.835938 Z M 9.5 4.835938 "/>
</g>
</svg>
