<svg xmlns="http://www.w3.org/2000/svg" height="4096" width="18556"  xmlns:v="https://vecta.io/nano"><path d="M17669.776 2721.084l631.792-631.792c119.82-119.912 193.924-285.516 193.924-468.432s-74.104-348.52-193.928-468.436h0c-68.328-67.848-151.344-121-243.852-154.26l-4.644-1.46c-65.484-24.2-141.12-38.204-220.028-38.204s-154.54 14-224.56 39.656l4.532-1.452c-97.152 34.716-180.168 87.872-248.536 155.756l-214.984 214.984 218.3 218.3 215.024-215.024c63.944-63.876 152.244-103.38 249.768-103.38 195.188 0 353.42 158.232 353.42 353.42 0 97.664-39.612 186.072-103.648 250.04l-895.752 895.572 109.148 263.96h1259.58V2721.08zm-1934.12-1673.616v1511.716l-1108.044-1511.716h-329.084v1982.876h309.256V1518.812l1108.044 1511.532h329.084V1047.468zm-3162.96 1136.604c276.224-43.904 484.844-280.38 484.844-565.584 0-7.548-.148-15.06-.436-22.536l.03 1.076c-12.008-309.256-274.328-549.564-583.764-549.564h-994.528V3030.34h309.256v-836.808h416.22l649.436 836.808h365.104zm-784.6-827.348h684.912c142.44 0 265.232 109.148 272.872 251.224.18 3.64.28 7.9.28 12.188 0 145.788-118.108 263.988-263.86 264.14h-694.204zm-1713.82 904.664L9507.428 1065.66h-277.24l-938.316 1979.056 8.004 3.82h317.44L8876 2502.792h985.616l258.864 545.744h317.26l8.004-3.82zm-1043.648-67.856l338-713.472 338.364 713.472zM7129.98 1997.064c88.56-100.016 142.64-232.34 142.64-377.296l-.02-4.984c-2.184-315.912-268.872-567.32-585.584-567.32H5693.94V3030.34H6778.7c333.996 0 604.504-272.872 584.312-606.868-11.02-175.36-99.576-328.008-231.464-425.304zm-1126.784-640.34h684.912c142.44 0 265.232 109.148 272.872 251.224a255.5 255.5 0 0 1 .292 12.372c0 145.756-118.136 263.916-263.88 263.96H6003.2zm775.504 1364.36h-775.504v-527.552h783.872c145.672.144 263.704 118.268 263.704 263.96a268.49 268.49 0 0 1-.312 12.976l.024-.608c-6.548 142.076-129.524 251.224-271.78 251.224zM888.472 3096.376c16.972-80.22 38.912-150.064 66.636-216.904l-2.964 8.064c59.192-144.336 139.504-268.136 238.588-374.168l-.644.696L2560.82 1143.152c50.18-50.204 119.516-81.256 196.104-81.256 153.132 0 277.268 124.136 277.268 277.268 0 76.544-31.016 145.844-81.164 196.016L1613.772 2874.256c-66.004 65.76-118.232 145.296-152.012 233.936l-1.524 4.556c-27.04 69.944-42.708 150.88-42.708 235.48 0 185.088 74.992 352.66 196.248 473.992l133.884 133.884c9.824 9.824 19.828 19.1 30.196 27.832 83.008 70.076 191.2 112.672 309.34 112.672 132.636 0 252.732-53.684 339.744-140.512l1504.976-1504.792c146.952-157.392 252.976-354.812 299.996-574.128l1.436-8-277.42-277.42c-16.92 80-38.608 149.548-65.94 216.184l2.996-8.256c-59.192 144.336-139.504 268.136-238.588 374.168l.644-.696-1504.984 1504.8c-15.892 15.844-37.816 25.64-62.032 25.64s-46.144-9.796-62.036-25.64h0l-134.072-133.888c-50.068-50.208-81.028-119.496-81.028-196.012s30.96-145.804 81.032-196.02l1339.256-1339.248c121.196-121.18 196.156-288.6 196.156-473.524 0-369.828-299.804-669.628-669.628-669.628h-.436C2757.156 300.012 2457.488.424 2087.844.424c-184.94 0-352.364 74.992-473.52 196.228L140.808 1670.168C54.036 1757.192.388 1877.276.388 2009.896S54.04 2262.6 140.82 2349.632l-.012-.012zM2283.4 865.552L748.036 2401.28l-329.632-330.356c-15.908-15.928-25.744-37.924-25.744-62.216s9.836-46.284 25.744-62.216h0L1891.916 472.98c50.18-50.204 119.516-81.256 196.104-81.256 153.132 0 277.268 124.136 277.268 277.268 0 76.544-31.016 145.844-81.164 196.016h0zM0 4080h18556M0 4064h18556M0 4048h18556M0 4032h18556M0 4016h18556M0 4000h18556M0 3984h18556M0 3968h18556M0 3952h18556M0 3936h18556M0 3920h18556M0 3904h18556M0 3888h18556M0 3872h18556M0 3856h18556M0 3840h18556M0 3824h18556M0 3808h18556M0 3792h18556M0 3776h18556M0 3760h18556M0 3744h18556M0 3728h18556M0 3712h18556M0 3696h18556M0 3680h18556M0 3664h18556M0 3648h18556M0 3632h18556M0 3616h18556M0 3600h18556M0 3584h18556M0 3568h18556M0 3552h18556M0 3536h18556M0 3520h18556M0 3504h18556M0 3488h18556M0 3472h18556M0 3456h18556M0 3440h18556M0 3424h18556M0 3408h18556M0 3392h18556M0 3376h18556M0 3360h18556M0 3344h18556M0 3328h18556M0 3312h18556M0 3296h18556M0 3280h18556M0 3264h18556M0 3248h18556M0 3232h18556M0 3216h18556M0 3200h18556M0 3184h18556M0 3168h18556M0 3152h18556M0 3136h18556M0 3120h18556M0 3104h18556M0 3088h18556M0 3072h18556M0 3056h18556M0 3040h18556M0 3024h18556M0 3008h18556M0 2992h18556M0 2976h18556M0 2960h18556M0 2944h18556M0 2928h18556M0 2912h18556M0 2896h18556M0 2880h18556M0 2864h18556M0 2848h18556M0 2832h18556M0 2816h18556M0 2800h18556M0 2784h18556M0 2768h18556M0 2752h18556M0 2736h18556M0 2720h18556M0 2704h18556M0 2688h18556M0 2672h18556M0 2656h18556M0 2640h18556M0 2624h18556M0 2608h18556M0 2592h18556M0 2576h18556M0 2560h18556M0 2544h18556M0 2528h18556M0 2512h18556M0 2496h18556M0 2480h18556M0 2464h18556M0 2448h18556M0 2432h18556M0 2416h18556M0 2400h18556M0 2384h18556M0 2368h18556M0 2352h18556M0 2336h18556M0 2320h18556M0 2304h18556M0 2288h18556M0 2272h18556M0 2256h18556M0 2240h18556M0 2224h18556M0 2208h18556M0 2192h18556M0 2176h18556M0 2160h18556M0 2144h18556M0 2128h18556M0 2112h18556M0 2096h18556M0 2080h18556M0 2064h18556M0 2048h18556M0 2032h18556M0 2016h18556M0 2000h18556M0 1984h18556M0 1968h18556M0 1952h18556M0 1936h18556M0 1920h18556M0 1904h18556M0 1888h18556M0 1872h18556M0 1856h18556M0 1840h18556M0 1824h18556M0 1808h18556M0 1792h18556M0 1776h18556M0 1760h18556M0 1744h18556M0 1728h18556M0 1712h18556M0 1696h18556M0 1680h18556M0 1664h18556M0 1648h18556M0 1632h18556M0 1616h18556M0 1600h18556M0 1584h18556M0 1568h18556M0 1552h18556M0 1536h18556M0 1520h18556M0 1504h18556M0 1488h18556M0 1472h18556M0 1456h18556M0 1440h18556M0 1424h18556M0 1408h18556M0 1392h18556M0 1376h18556M0 1360h18556M0 1344h18556M0 1328h18556M0 1312h18556M0 1296h18556M0 1280h18556M0 1264h18556M0 1248h18556M0 1232h18556M0 1216h18556M0 1200h18556M0 1184h18556M0 1168h18556M0 1152h18556M0 1136h18556M0 1120h18556M0 1104h18556M0 1088h18556M0 1072h18556M0 1056h18556M0 1040h18556M0 1024h18556M0 1008h18556M0 992h18556M0 976h18556M0 960h18556M0 944h18556M0 928h18556M0 912h18556M0 896h18556M0 880h18556M0 864h18556M0 848h18556M0 832h18556M0 816h18556M0 800h18556M0 784h18556M0 768h18556M0 752h18556M0 736h18556M0 720h18556M0 704h18556M0 688h18556M0 672h18556M0 656h18556M0 640h18556M0 624h18556M0 608h18556M0 592h18556M0 576h18556M0 560h18556M0 544h18556M0 528h18556M0 512h18556M0 496h18556M0 480h18556M0 464h18556M0 448h18556M0 432h18556M0 416h18556M0 400h18556M0 384h18556M0 368h18556M0 352h18556M0 336h18556M0 320h18556M0 304h18556M0 288h18556M0 272h18556M0 256h18556M0 240h18556M0 224h18556M0 208h18556M0 192h18556M0 176h18556M0 160h18556M0 144h18556M0 128h18556M0 112h18556M0 96h18556M0 80h18556M0 64h18556M0 48h18556M0 32h18556M0 16h18556m-12-16v4096M18528 0v4096M18512 0v4096M18496 0v4096M18480 0v4096M18464 0v4096M18448 0v4096M18432 0v4096M18416 0v4096M18400 0v4096M18384 0v4096M18368 0v4096M18352 0v4096M18336 0v4096M18320 0v4096M18304 0v4096M18288 0v4096M18272 0v4096M18256 0v4096M18240 0v4096M18224 0v4096M18208 0v4096M18192 0v4096M18176 0v4096M18160 0v4096M18144 0v4096M18128 0v4096M18112 0v4096M18096 0v4096M18080 0v4096M18064 0v4096M18048 0v4096M18032 0v4096M18016 0v4096M18000 0v4096M17984 0v4096M17968 0v4096M17952 0v4096M17936 0v4096M17920 0v4096M17904 0v4096M17888 0v4096M17872 0v4096M17856 0v4096M17840 0v4096M17824 0v4096M17808 0v4096M17792 0v4096M17776 0v4096M17760 0v4096M17744 0v4096M17728 0v4096M17712 0v4096M17696 0v4096M17680 0v4096M17664 0v4096M17648 0v4096M17632 0v4096M17616 0v4096M17600 0v4096M17584 0v4096M17568 0v4096M17552 0v4096M17536 0v4096M17520 0v4096M17504 0v4096M17488 0v4096M17472 0v4096M17456 0v4096M17440 0v4096M17424 0v4096M17408 0v4096M17392 0v4096M17376 0v4096M17360 0v4096M17344 0v4096M17328 0v4096M17312 0v4096M17296 0v4096M17280 0v4096M17264 0v4096M17248 0v4096M17232 0v4096M17216 0v4096M17200 0v4096M17184 0v4096M17168 0v4096M17152 0v4096M17136 0v4096M17120 0v4096M17104 0v4096M17088 0v4096M17072 0v4096M17056 0v4096M17040 0v4096M17024 0v4096M17008 0v4096M16992 0v4096M16976 0v4096M16960 0v4096M16944 0v4096M16928 0v4096M16912 0v4096M16896 0v4096M16880 0v4096M16864 0v4096M16848 0v4096M16832 0v4096M16816 0v4096M16800 0v4096M16784 0v4096M16768 0v4096M16752 0v4096M16736 0v4096M16720 0v4096M16704 0v4096M16688 0v4096M16672 0v4096M16656 0v4096M16640 0v4096M16624 0v4096M16608 0v4096M16592 0v4096M16576 0v4096M16560 0v4096M16544 0v4096M16528 0v4096M16512 0v4096M16496 0v4096M16480 0v4096M16464 0v4096M16448 0v4096M16432 0v4096M16416 0v4096M16400 0v4096M16384 0v4096M16368 0v4096M16352 0v4096M16336 0v4096M16320 0v4096M16304 0v4096M16288 0v4096M16272 0v4096M16256 0v4096M16240 0v4096M16224 0v4096M16208 0v4096M16192 0v4096M16176 0v4096M16160 0v4096M16144 0v4096M16128 0v4096M16112 0v4096M16096 0v4096M16080 0v4096M16064 0v4096M16048 0v4096M16032 0v4096M16016 0v4096M16000 0v4096M15984 0v4096M15968 0v4096M15952 0v4096M15936 0v4096M15920 0v4096M15904 0v4096M15888 0v4096M15872 0v4096M15856 0v4096M15840 0v4096M15824 0v4096M15808 0v4096M15792 0v4096M15776 0v4096M15760 0v4096M15744 0v4096M15728 0v4096M15712 0v4096M15696 0v4096M15680 0v4096M15664 0v4096M15648 0v4096M15632 0v4096M15616 0v4096M15600 0v4096M15584 0v4096M15568 0v4096M15552 0v4096M15536 0v4096M15520 0v4096M15504 0v4096M15488 0v4096M15472 0v4096M15456 0v4096M15440 0v4096M15424 0v4096M15408 0v4096M15392 0v4096M15376 0v4096M15360 0v4096M15344 0v4096M15328 0v4096M15312 0v4096M15296 0v4096M15280 0v4096M15264 0v4096M15248 0v4096M15232 0v4096M15216 0v4096M15200 0v4096M15184 0v4096M15168 0v4096M15152 0v4096M15136 0v4096M15120 0v4096M15104 0v4096M15088 0v4096M15072 0v4096M15056 0v4096M15040 0v4096M15024 0v4096M15008 0v4096M14992 0v4096M14976 0v4096M14960 0v4096M14944 0v4096M14928 0v4096M14912 0v4096M14896 0v4096M14880 0v4096M14864 0v4096M14848 0v4096M14832 0v4096M14816 0v4096M14800 0v4096M14784 0v4096M14768 0v4096M14752 0v4096M14736 0v4096M14720 0v4096M14704 0v4096M14688 0v4096M14672 0v4096M14656 0v4096M14640 0v4096M14624 0v4096M14608 0v4096M14592 0v4096M14576 0v4096M14560 0v4096M14544 0v4096M14528 0v4096M14512 0v4096M14496 0v4096M14480 0v4096M14464 0v4096M14448 0v4096M14432 0v4096M14416 0v4096M14400 0v4096M14384 0v4096M14368 0v4096M14352 0v4096M14336 0v4096M14320 0v4096M14304 0v4096M14288 0v4096M14272 0v4096M14256 0v4096M14240 0v4096M14224 0v4096M14208 0v4096M14192 0v4096M14176 0v4096M14160 0v4096M14144 0v4096M14128 0v4096M14112 0v4096M14096 0v4096M14080 0v4096M14064 0v4096M14048 0v4096M14032 0v4096M14016 0v4096M14000 0v4096M13984 0v4096M13968 0v4096M13952 0v4096M13936 0v4096M13920 0v4096M13904 0v4096M13888 0v4096M13872 0v4096M13856 0v4096M13840 0v4096M13824 0v4096M13808 0v4096M13792 0v4096M13776 0v4096M13760 0v4096M13744 0v4096M13728 0v4096M13712 0v4096M13696 0v4096M13680 0v4096M13664 0v4096M13648 0v4096M13632 0v4096M13616 0v4096M13600 0v4096M13584 0v4096M13568 0v4096M13552 0v4096M13536 0v4096M13520 0v4096M13504 0v4096M13488 0v4096M13472 0v4096M13456 0v4096M13440 0v4096M13424 0v4096M13408 0v4096M13392 0v4096M13376 0v4096M13360 0v4096M13344 0v4096M13328 0v4096M13312 0v4096M13296 0v4096M13280 0v4096M13264 0v4096M13248 0v4096M13232 0v4096M13216 0v4096M13200 0v4096M13184 0v4096M13168 0v4096M13152 0v4096M13136 0v4096M13120 0v4096M13104 0v4096M13088 0v4096M13072 0v4096M13056 0v4096M13040 0v4096M13024 0v4096M13008 0v4096M12992 0v4096M12976 0v4096M12960 0v4096M12944 0v4096M12928 0v4096M12912 0v4096M12896 0v4096M12880 0v4096M12864 0v4096M12848 0v4096M12832 0v4096M12816 0v4096M12800 0v4096M12784 0v4096M12768 0v4096M12752 0v4096M12736 0v4096M12720 0v4096M12704 0v4096M12688 0v4096M12672 0v4096M12656 0v4096M12640 0v4096M12624 0v4096M12608 0v4096M12592 0v4096M12576 0v4096M12560 0v4096M12544 0v4096M12528 0v4096M12512 0v4096M12496 0v4096M12480 0v4096M12464 0v4096M12448 0v4096M12432 0v4096M12416 0v4096M12400 0v4096M12384 0v4096M12368 0v4096M12352 0v4096M12336 0v4096M12320 0v4096M12304 0v4096M12288 0v4096M12272 0v4096M12256 0v4096M12240 0v4096M12224 0v4096M12208 0v4096M12192 0v4096M12176 0v4096M12160 0v4096M12144 0v4096M12128 0v4096M12112 0v4096M12096 0v4096M12080 0v4096M12064 0v4096M12048 0v4096M12032 0v4096M12016 0v4096M12000 0v4096M11984 0v4096M11968 0v4096M11952 0v4096M11936 0v4096M11920 0v4096M11904 0v4096M11888 0v4096M11872 0v4096M11856 0v4096M11840 0v4096M11824 0v4096M11808 0v4096M11792 0v4096M11776 0v4096M11760 0v4096M11744 0v4096M11728 0v4096M11712 0v4096M11696 0v4096M11680 0v4096M11664 0v4096M11648 0v4096M11632 0v4096M11616 0v4096M11600 0v4096M11584 0v4096M11568 0v4096M11552 0v4096M11536 0v4096M11520 0v4096M11504 0v4096M11488 0v4096M11472 0v4096M11456 0v4096M11440 0v4096M11424 0v4096M11408 0v4096M11392 0v4096M11376 0v4096M11360 0v4096M11344 0v4096M11328 0v4096M11312 0v4096M11296 0v4096M11280 0v4096M11264 0v4096M11248 0v4096M11232 0v4096M11216 0v4096M11200 0v4096M11184 0v4096M11168 0v4096M11152 0v4096M11136 0v4096M11120 0v4096M11104 0v4096M11088 0v4096M11072 0v4096M11056 0v4096M11040 0v4096M11024 0v4096M11008 0v4096M10992 0v4096M10976 0v4096M10960 0v4096M10944 0v4096M10928 0v4096M10912 0v4096M10896 0v4096M10880 0v4096M10864 0v4096M10848 0v4096M10832 0v4096M10816 0v4096M10800 0v4096M10784 0v4096M10768 0v4096M10752 0v4096M10736 0v4096M10720 0v4096M10704 0v4096M10688 0v4096M10672 0v4096M10656 0v4096M10640 0v4096M10624 0v4096M10608 0v4096M10592 0v4096M10576 0v4096M10560 0v4096M10544 0v4096M10528 0v4096M10512 0v4096M10496 0v4096M10480 0v4096M10464 0v4096M10448 0v4096M10432 0v4096M10416 0v4096M10400 0v4096M10384 0v4096M10368 0v4096M10352 0v4096M10336 0v4096M10320 0v4096M10304 0v4096M10288 0v4096M10272 0v4096M10256 0v4096M10240 0v4096M10224 0v4096M10208 0v4096M10192 0v4096M10176 0v4096M10160 0v4096M10144 0v4096M10128 0v4096M10112 0v4096M10096 0v4096M10080 0v4096M10064 0v4096M10048 0v4096M10032 0v4096M10016 0v4096M10000 0v4096M9984 0v4096M9968 0v4096M9952 0v4096M9936 0v4096M9920 0v4096M9904 0v4096M9888 0v4096M9872 0v4096M9856 0v4096M9840 0v4096M9824 0v4096M9808 0v4096M9792 0v4096M9776 0v4096M9760 0v4096M9744 0v4096M9728 0v4096M9712 0v4096M9696 0v4096M9680 0v4096M9664 0v4096M9648 0v4096M9632 0v4096M9616 0v4096M9600 0v4096M9584 0v4096M9568 0v4096M9552 0v4096M9536 0v4096M9520 0v4096M9504 0v4096M9488 0v4096M9472 0v4096M9456 0v4096M9440 0v4096M9424 0v4096M9408 0v4096M9392 0v4096M9376 0v4096M9360 0v4096M9344 0v4096M9328 0v4096M9312 0v4096M9296 0v4096M9280 0v4096M9264 0v4096M9248 0v4096M9232 0v4096M9216 0v4096M9200 0v4096M9184 0v4096M9168 0v4096M9152 0v4096M9136 0v4096M9120 0v4096M9104 0v4096M9088 0v4096M9072 0v4096M9056 0v4096M9040 0v4096M9024 0v4096M9008 0v4096M8992 0v4096M8976 0v4096M8960 0v4096M8944 0v4096M8928 0v4096M8912 0v4096M8896 0v4096M8880 0v4096M8864 0v4096M8848 0v4096M8832 0v4096M8816 0v4096M8800 0v4096M8784 0v4096M8768 0v4096M8752 0v4096M8736 0v4096M8720 0v4096M8704 0v4096M8688 0v4096M8672 0v4096M8656 0v4096M8640 0v4096M8624 0v4096M8608 0v4096M8592 0v4096M8576 0v4096M8560 0v4096M8544 0v4096M8528 0v4096M8512 0v4096M8496 0v4096M8480 0v4096M8464 0v4096M8448 0v4096M8432 0v4096M8416 0v4096M8400 0v4096M8384 0v4096M8368 0v4096M8352 0v4096M8336 0v4096M8320 0v4096M8304 0v4096M8288 0v4096M8272 0v4096M8256 0v4096M8240 0v4096M8224 0v4096M8208 0v4096M8192 0v4096M8176 0v4096M8160 0v4096M8144 0v4096M8128 0v4096M8112 0v4096M8096 0v4096M8080 0v4096M8064 0v4096M8048 0v4096M8032 0v4096M8016 0v4096M8000 0v4096M7984 0v4096M7968 0v4096M7952 0v4096M7936 0v4096M7920 0v4096M7904 0v4096M7888 0v4096M7872 0v4096M7856 0v4096M7840 0v4096M7824 0v4096M7808 0v4096M7792 0v4096M7776 0v4096M7760 0v4096M7744 0v4096M7728 0v4096M7712 0v4096M7696 0v4096M7680 0v4096M7664 0v4096M7648 0v4096M7632 0v4096M7616 0v4096M7600 0v4096M7584 0v4096M7568 0v4096M7552 0v4096M7536 0v4096M7520 0v4096M7504 0v4096M7488 0v4096M7472 0v4096M7456 0v4096M7440 0v4096M7424 0v4096M7408 0v4096M7392 0v4096M7376 0v4096M7360 0v4096M7344 0v4096M7328 0v4096M7312 0v4096M7296 0v4096M7280 0v4096M7264 0v4096M7248 0v4096M7232 0v4096M7216 0v4096M7200 0v4096M7184 0v4096M7168 0v4096M7152 0v4096M7136 0v4096M7120 0v4096M7104 0v4096M7088 0v4096M7072 0v4096M7056 0v4096M7040 0v4096M7024 0v4096M7008 0v4096M6992 0v4096M6976 0v4096M6960 0v4096M6944 0v4096M6928 0v4096M6912 0v4096M6896 0v4096M6880 0v4096M6864 0v4096M6848 0v4096M6832 0v4096M6816 0v4096M6800 0v4096M6784 0v4096M6768 0v4096M6752 0v4096M6736 0v4096M6720 0v4096M6704 0v4096M6688 0v4096M6672 0v4096M6656 0v4096M6640 0v4096M6624 0v4096M6608 0v4096M6592 0v4096M6576 0v4096M6560 0v4096M6544 0v4096M6528 0v4096M6512 0v4096M6496 0v4096M6480 0v4096M6464 0v4096M6448 0v4096M6432 0v4096M6416 0v4096M6400 0v4096M6384 0v4096M6368 0v4096M6352 0v4096M6336 0v4096M6320 0v4096M6304 0v4096M6288 0v4096M6272 0v4096M6256 0v4096M6240 0v4096M6224 0v4096M6208 0v4096M6192 0v4096M6176 0v4096M6160 0v4096M6144 0v4096M6128 0v4096M6112 0v4096M6096 0v4096M6080 0v4096M6064 0v4096M6048 0v4096M6032 0v4096M6016 0v4096M6000 0v4096M5984 0v4096M5968 0v4096M5952 0v4096M5936 0v4096M5920 0v4096M5904 0v4096M5888 0v4096M5872 0v4096M5856 0v4096M5840 0v4096M5824 0v4096M5808 0v4096M5792 0v4096M5776 0v4096M5760 0v4096M5744 0v4096M5728 0v4096M5712 0v4096M5696 0v4096M5680 0v4096M5664 0v4096M5648 0v4096M5632 0v4096M5616 0v4096M5600 0v4096M5584 0v4096M5568 0v4096M5552 0v4096M5536 0v4096M5520 0v4096M5504 0v4096M5488 0v4096M5472 0v4096M5456 0v4096M5440 0v4096M5424 0v4096M5408 0v4096M5392 0v4096M5376 0v4096M5360 0v4096M5344 0v4096M5328 0v4096M5312 0v4096M5296 0v4096M5280 0v4096M5264 0v4096M5248 0v4096M5232 0v4096M5216 0v4096M5200 0v4096M5184 0v4096M5168 0v4096M5152 0v4096M5136 0v4096M5120 0v4096M5104 0v4096M5088 0v4096M5072 0v4096M5056 0v4096M5040 0v4096M5024 0v4096M5008 0v4096M4992 0v4096M4976 0v4096M4960 0v4096M4944 0v4096M4928 0v4096M4912 0v4096M4896 0v4096M4880 0v4096M4864 0v4096M4848 0v4096M4832 0v4096M4816 0v4096M4800 0v4096M4784 0v4096M4768 0v4096M4752 0v4096M4736 0v4096M4720 0v4096M4704 0v4096M4688 0v4096M4672 0v4096M4656 0v4096M4640 0v4096M4624 0v4096M4608 0v4096M4592 0v4096M4576 0v4096M4560 0v4096M4544 0v4096M4528 0v4096M4512 0v4096M4496 0v4096M4480 0v4096M4464 0v4096M4448 0v4096M4432 0v4096M4416 0v4096M4400 0v4096M4384 0v4096M4368 0v4096M4352 0v4096M4336 0v4096M4320 0v4096M4304 0v4096M4288 0v4096M4272 0v4096M4256 0v4096M4240 0v4096M4224 0v4096M4208 0v4096M4192 0v4096M4176 0v4096M4160 0v4096M4144 0v4096M4128 0v4096M4112 0v4096M4096 0v4096M4080 0v4096M4064 0v4096M4048 0v4096M4032 0v4096M4016 0v4096M4000 0v4096M3984 0v4096M3968 0v4096M3952 0v4096M3936 0v4096M3920 0v4096M3904 0v4096M3888 0v4096M3872 0v4096M3856 0v4096M3840 0v4096M3824 0v4096M3808 0v4096M3792 0v4096M3776 0v4096M3760 0v4096M3744 0v4096M3728 0v4096M3712 0v4096M3696 0v4096M3680 0v4096M3664 0v4096M3648 0v4096M3632 0v4096M3616 0v4096M3600 0v4096M3584 0v4096M3568 0v4096M3552 0v4096M3536 0v4096M3520 0v4096M3504 0v4096M3488 0v4096M3472 0v4096M3456 0v4096M3440 0v4096M3424 0v4096M3408 0v4096M3392 0v4096M3376 0v4096M3360 0v4096M3344 0v4096M3328 0v4096M3312 0v4096M3296 0v4096M3280 0v4096M3264 0v4096M3248 0v4096M3232 0v4096M3216 0v4096M3200 0v4096M3184 0v4096M3168 0v4096M3152 0v4096M3136 0v4096M3120 0v4096M3104 0v4096M3088 0v4096M3072 0v4096M3056 0v4096M3040 0v4096M3024 0v4096M3008 0v4096M2992 0v4096M2976 0v4096M2960 0v4096M2944 0v4096M2928 0v4096M2912 0v4096M2896 0v4096M2880 0v4096M2864 0v4096M2848 0v4096M2832 0v4096M2816 0v4096M2800 0v4096M2784 0v4096M2768 0v4096M2752 0v4096M2736 0v4096M2720 0v4096M2704 0v4096M2688 0v4096M2672 0v4096M2656 0v4096M2640 0v4096M2624 0v4096M2608 0v4096M2592 0v4096M2576 0v4096M2560 0v4096M2544 0v4096M2528 0v4096M2512 0v4096M2496 0v4096M2480 0v4096M2464 0v4096M2448 0v4096M2432 0v4096M2416 0v4096M2400 0v4096M2384 0v4096M2368 0v4096M2352 0v4096M2336 0v4096M2320 0v4096M2304 0v4096M2288 0v4096M2272 0v4096M2256 0v4096M2240 0v4096M2224 0v4096M2208 0v4096M2192 0v4096M2176 0v4096M2160 0v4096M2144 0v4096M2128 0v4096M2112 0v4096M2096 0v4096M2080 0v4096M2064 0v4096M2048 0v4096M2032 0v4096M2016 0v4096M2000 0v4096M1984 0v4096M1968 0v4096M1952 0v4096M1936 0v4096M1920 0v4096M1904 0v4096M1888 0v4096M1872 0v4096M1856 0v4096M1840 0v4096M1824 0v4096M1808 0v4096M1792 0v4096M1776 0v4096M1760 0v4096M1744 0v4096M1728 0v4096M1712 0v4096M1696 0v4096M1680 0v4096M1664 0v4096M1648 0v4096M1632 0v4096M1616 0v4096M1600 0v4096M1584 0v4096M1568 0v4096M1552 0v4096M1536 0v4096M1520 0v4096M1504 0v4096M1488 0v4096M1472 0v4096M1456 0v4096M1440 0v4096M1424 0v4096M1408 0v4096M1392 0v4096M1376 0v4096M1360 0v4096M1344 0v4096M1328 0v4096M1312 0v4096M1296 0v4096M1280 0v4096M1264 0v4096M1248 0v4096M1232 0v4096M1216 0v4096M1200 0v4096M1184 0v4096M1168 0v4096M1152 0v4096M1136 0v4096M1120 0v4096M1104 0v4096M1088 0v4096M1072 0v4096M1056 0v4096M1040 0v4096M1024 0v4096M1008 0v4096M992 0v4096M976 0v4096M960 0v4096M944 0v4096M928 0v4096M912 0v4096M896 0v4096M880 0v4096M864 0v4096M848 0v4096M832 0v4096M816 0v4096M800 0v4096M784 0v4096M768 0v4096M752 0v4096M736 0v4096M720 0v4096M704 0v4096M688 0v4096M672 0v4096M656 0v4096M640 0v4096M624 0v4096M608 0v4096M592 0v4096M576 0v4096M560 0v4096M544 0v4096M528 0v4096M512 0v4096M496 0v4096M480 0v4096M464 0v4096M448 0v4096M432 0v4096M416 0v4096M400 0v4096M384 0v4096M368 0v4096M352 0v4096M336 0v4096M320 0v4096M304 0v4096M288 0v4096M272 0v4096M256 0v4096M240 0v4096M224 0v4096M208 0v4096M192 0v4096M176 0v4096M160 0v4096M144 0v4096M128 0v4096M112 0v4096M96 0v4096M80 0v4096M64 0v4096M48 0v4096M32 0v4096M16 0v4096" fill="#fff"/></svg>